<?xml version="1.0" encoding="UTF-8"?>
<svg id="Layer_1" data-name="Layer 1" xmlns="http://www.w3.org/2000/svg" viewBox="0 0 5095.21 5833.54">
  <defs>
    <style>
      .cls-1 {
        font-size: 1000px;
        letter-spacing: .2em;
      }

      .cls-2 {
        letter-spacing: .18em;
      }

      .cls-3 {
        letter-spacing: .2em;
      }

      .cls-4 {
        letter-spacing: .2em;
      }

      .cls-5 {
        letter-spacing: .21em;
      }

      .cls-6 {
        letter-spacing: .2em;
      }

      .cls-7 {
        letter-spacing: .18em;
      }

      .cls-8 {
        letter-spacing: .19em;
      }

      .cls-9 {
        font-size: 408px;
      }

      .cls-10 {
        stroke-width: 0px;
      }

      .cls-10, .cls-11 {
        fill: #fff;
      }

      .cls-11 {
        font-family: Anta-Regular, Anta;
      }
    </style>
  </defs>
  <path class="cls-10" d="M4492.97,13.34s42.81,63.4,48.65,183.49c5.84,120.09,17.51,306.91-77.84,491.78-95.36,184.87-196.55,346.39-252.98,404.77-56.43,58.38-231.58,249.09-363.91,342.5-132.33,93.41-451.48,377.53-459.26,387.26-7.78,9.73-161.52-87.57-266.6-101.19-153.96-11.52-182.88-36.66-351.27,25.12-224.54,82.38-414.58,312.18-414.58,312.18,0,0,248.73-174.86,402.49-231.14,149.84-54.85,256.89-35.63,390.6-14.69,99.92,15.65,229.63,136.22,266.6,221.85,0,0,35.49,34.21,64.22,116.76,24.95,71.68-35.03,159.57-62.27,186.82,0,0,14.66,58.1,10.84,153.83-3.43,85.94-79.29,134.8-171.05,142.73,0,0,40.78-98.55-7.93-134.8-48.71-36.25-98.55-45.31-146.13-31.72-47.58,13.59-175.58,91.76-222.03,155.19-46.44,63.44-83.51,135.24-123.06,235.03-39.55,99.78-56.63,236.42-71.02,308.33-14.38,71.91-23.37,316.42-26.97,400.02-3.6,83.6,3.6,177.09,31.46,389.23,27.87,212.15,82.7,346.99,82.7,346.99,0,0,39.85-173.04,71.91-216.64,22.47-30.56,28.04-37.47,49.44-45.85l-20.68-101.58s-20.86-52.86-24.55-111.45c-8.69-61.15-10.97-174.28-10.97-174.28l40.91,148.2s52.14,139.33,84.5,194.17c0,0,46.74-143.83,91.69-153.72,0,0-48.8-122.58-66.63-163.74-34.48-97.62-50.88-223.58-52.12-293.54-.63-35.65,7.54-112.48,7.54-112.48,0,0,28.28,135.76,39.78,192.72,11.5,56.96,13.57,84.32,43.89,170.09,30.4,85.98,77.5,152.26,77.5,152.26l3.43,6.17s42.52-212.61,84.36-229.76c0,0-59.56-138.43-73.94-215.33-35.83-191.6-18.51-371.85-18.51-371.85l35.35-175.21,10.77,153.68s25.45,101.8,52.86,140.96c0,0,9.79-189.9,62.65-243.74s114.53-102.78,165.43-116.48c50.9-13.7,180.11-47.96,262.33-56.77,82.22-8.81,207.52-19.58,285.83-52.86,78.31-33.28,191.86-46.99,345.54-199.69,0,0,99.82-142.63,71.46-125.29-140.96,86.14-311.28,141.93-425.8,162.49-114.53,20.56-292.68,39.15-292.68,39.15,0,0,211.28-63,233.67-72.6,22.39-9.6,281.46-107.13,402.91-172.95,124.07-67.24,273.67-125.95,374.74-245.68,101.07-119.73,138.39-222.36,138.39-222.36-332.76,265.9-695.06,348.31-838.11,390.29-143.05,41.98-208.36,57.53-208.36,57.53,0,0,343.64-139.94,430.72-183.48,87.08-43.54,244.13-113.51,384.07-216.14,139.94-102.63,239.46-185.04,340.53-323.43,101.07-138.39,161.71-368.52,161.71-368.52-315.65,365.41-589.48,528.27-829.28,646.86-53.74,26.57-150.67,80.32-229.63,125.95l-40.03,11.94-88.63,31.38s421.8-219.47,620.69-380.65c198.9-161.17,294.91-288.06,390.93-438.94,96.02-150.89,121.93-386.17,102.88-528.1-5.38-40.04-23.76-88.29-23.76-88.29,0,0-1.15,252.77-357.33,629.64-224.37,237.39-251.37,197.76-552.66,452.69-14.94,12.64,199.91-199.12,258.52-260.82,65.49-68.94,211.1-256.59,267.71-375.71,55.15-116.05,97.81-213.04,109.15-340.1,11.49-128.68,5.74-233.24-16.09-295.29-21.83-62.04-127.54-265.41-219.45-333.2l4.73,10.01Z"/>
  <path class="cls-10" d="M2571.59,3953.35c-27.86,212.14-82.7,346.98-82.7,346.98,0,0-39.86-173.04-71.91-216.64-22.48-30.56-28.05-37.46-49.44-45.84l20.68-101.58s20.86-52.86,24.55-111.45c8.69-61.14,10.97-174.28,10.97-174.28l-40.91,148.2s-52.14,139.33-84.5,194.17c0,0-46.75-143.83-91.7-153.72,0,0,48.8-122.58,66.63-163.74,34.49-97.62,50.88-223.58,52.13-293.54.63-35.65-7.54-112.48-7.54-112.48,0,0-28.28,135.76-39.78,192.72-11.5,56.96-13.56,84.32-43.89,170.09-30.41,85.98-77.5,152.26-77.5,152.26l-3.43,6.17s-42.52-212.61-84.36-229.76c0,0,59.56-138.43,73.93-215.33,35.83-191.6,18.51-371.85,18.51-371.85l-35.35-175.22-10.76,153.68s-25.45,101.8-52.86,140.96c0,0-9.79-189.9-62.64-243.74-52.86-53.84-114.53-102.78-165.43-116.49-50.9-13.7-180.11-47.96-262.34-56.77-82.22-8.81-207.52-19.57-285.83-52.85-78.31-33.28-191.86-46.98-345.54-199.69,0,0-99.82-142.62-71.45-125.29,140.95,86.14,311.28,141.94,425.8,162.5,114.53,20.55,292.68,39.15,292.68,39.15,0,0-211.28-63-233.67-72.6-22.39-9.59-281.45-107.13-402.9-172.95-124.07-67.23-273.67-125.95-374.74-245.68-101.08-119.73-138.39-222.36-138.39-222.36,332.76,265.9,695.06,348.3,838.11,390.29,141.57,41.54,207,57.2,208.34,57.52-3.24-1.32-344.04-140.15-430.7-183.48-87.08-43.54-244.13-113.51-384.07-216.14-139.94-102.63-239.46-185.04-340.53-323.43-100.68-137.85-161.24-366.73-161.71-368.51,315.65,365.41,589.47,528.26,829.28,646.85,53.74,26.57,150.66,80.31,229.63,125.95l40.03,11.95,88.63,31.38s-421.8-219.47-620.69-380.65-294.91-288.06-390.94-438.94c-96.02-150.89-121.93-386.16-102.88-528.1,5.38-40.04,23.76-88.3,23.76-88.3,0,0,1.15,252.77,357.33,629.64,224.37,237.39,251.37,197.76,552.65,452.69,14.94,12.64-199.91-199.13-258.51-260.82-65.5-68.94-211.1-256.59-267.72-375.71-55.15-116.05-97.81-213.05-109.15-340.1-11.49-128.68-5.74-233.24,16.09-295.29,21.83-62.04,127.53-265.41,219.45-333.2l-4.74,10s-42.81,63.4-48.65,183.49c-5.84,120.09-17.52,306.91,77.84,491.78,95.35,184.87,196.55,346.39,252.98,404.77,56.43,58.38,231.58,249.09,363.91,342.5,132.33,93.41,604.7,547.53,656.85,629.63,74.07,86.51,147.95,205.59,179.21,243.95,51.6,63.34,116.61,219.14,152.92,288.88,36.67,70.44,60.9,160.97,100.45,260.75,39.55,99.78,56.63,236.42,71.01,308.33,14.38,71.91,23.37,316.42,26.97,400.02,3.6,83.6-3.6,177.09-31.46,389.23Z"/>
  <path class="cls-10" d="M3353.23,2153.5l12.11,118.99,20.18,33.63s-63.23-14.8-67.27-34.98c-4.04-20.18-9.42-35.58-6.73-41.33,2.69-5.76,12.11-19.21,17.49-19.21s1.35-34.98,1.35-47.09,22.87-10.01,22.87-10.01Z"/>
  <text id="bagdad_IT_academy" data-name="bagdad IT academy" class="cls-11" transform="translate(0 5237.56)"><tspan class="cls-1"><tspan x="0" y="0">BAGDAD</tspan></tspan><tspan class="cls-9"><tspan class="cls-4" x="1947.78" y="489.6">I</tspan><tspan class="cls-6" x="2128.5" y="489.6">T </tspan><tspan class="cls-2" x="2657.86" y="489.6">A</tspan><tspan class="cls-5" x="3003.01" y="489.6">C</tspan><tspan class="cls-3" x="3364.3" y="489.6">A</tspan><tspan class="cls-8" x="3718.43" y="489.6">D</tspan><tspan class="cls-7" x="4076.93" y="489.6">E</tspan><tspan class="cls-3" x="4423.54" y="489.6">M</tspan><tspan class="cls-6" x="4822.09" y="489.6">Y</tspan></tspan></text>
</svg>